<?xml version="1.0" standalone="no"?>
<!DOCTYPE svg PUBLIC "-//W3C//DTD SVG 1.1//EN" "http://www.w3.org/Graphics/SVG/1.1/DTD/svg11.dtd" >
<svg xmlns="http://www.w3.org/2000/svg">
<metadata>
This is a custom SVG webfont generated by Font Squirrel.
Copyright   : Copyright c 1991 Digital Typeface Corp
</metadata>
<defs>
<font id="webfontkIgqO6eN" horiz-adv-x="1097" >
<font-face units-per-em="2048" ascent="1638" descent="-410" />
<missing-glyph horiz-adv-x="569" />
<glyph unicode=" "  horiz-adv-x="569" />
<glyph unicode="&#x09;" horiz-adv-x="569" />
<glyph unicode="&#xa0;" horiz-adv-x="569" />
<glyph unicode="!" horiz-adv-x="737" d="M309 338l-22 1028h162l-25 -1028h-115zM287 0v164h162v-164h-162z" />
<glyph unicode="&#x22;" horiz-adv-x="600" d="M98 1475h133l-18 -547h-96zM369 1475h133l-19 -547h-96z" />
<glyph unicode="#" d="M1018 854h-182l-48 -307h185l-17 -103h-182l-67 -444h-109l66 444h-291l-68 -444h-108l65 444h-188l14 103h191l45 307h-189l15 102h190l61 410h109l-61 -410h292l62 410h108l-61 -410h184zM434 854l-47 -307h293l45 307h-291z" />
<glyph unicode="$" d="M608 1251l-22 -2v-481q176 -96 271 -182t95 -228q0 -145 -101 -245.5t-269 -116.5v-178h-93v176q-80 0 -155.5 14.5t-157.5 40.5l10 135q90 -37 158 -53t145 -16v549q-158 88 -242.5 166.5t-84.5 207.5q0 135 88 221.5t242 102.5v182h94v-180q152 0 295 -47l-15 -129 q-129 63 -258 63zM492 811v438q-193 -41 -193 -198q0 -146 193 -240zM815 354q0 78 -51 137.5t-182 131.5v-508q102 25 167.5 83t65.5 156z" />
<glyph unicode="%" horiz-adv-x="1732" d="M102 1020q0 178 84 278.5t236 100.5q147 0 228 -93.5t81 -261.5q0 -184 -83 -283t-234 -99q-147 0 -229.5 94t-82.5 264zM227 1018q0 -254 187 -254q92 0 141 71.5t49 204.5q0 256 -180 256q-197 1 -197 -278zM420 -86l778 1538h113l-781 -1538h-110zM1001 324 q0 178 85 279.5t235 101.5q145 0 226 -93.5t81 -261.5q0 -182 -83 -283.5t-234 -101.5q-145 0 -227.5 94.5t-82.5 264.5zM1126 324q0 -256 187 -256q190 0 190 278q0 256 -182 256q-195 1 -195 -278z" />
<glyph unicode="&#x26;" horiz-adv-x="1318" d="M1294 0h-172l-143 158q-90 -92 -192.5 -136.5t-231.5 -44.5q-190 0 -319.5 99.5t-129.5 285.5q0 147 90.5 241.5t241.5 152.5q-82 72 -134 156.5t-52 179.5q0 139 106.5 214.5t251.5 75.5q133 0 233.5 -74.5t100.5 -203.5q0 -133 -88 -219t-235 -156l30 -31 q23 -23 39 -41l285 -307q55 86 82.5 185.5t38.5 214.5h125q0 -131 -43 -254t-125 -234zM606 1278q-94 0 -159.5 -53.5t-65.5 -145.5q0 -78 43 -138t127 -142q129 68 197.5 128t68.5 167q0 82 -62.5 133t-148.5 51zM567 86q102 0 184.5 41t155.5 121l-401 434 q-158 -82 -210 -156.5t-52 -165.5q0 -125 96 -199.5t227 -74.5z" />
<glyph unicode="'" horiz-adv-x="329" d="M98 1475h133l-18 -547h-96z" />
<glyph unicode="(" horiz-adv-x="624" d="M530 -416h-102q-152 244 -241 479.5t-89 475.5q0 229 86 458.5t234 477.5h102q-135 -246 -214 -475.5t-79 -458.5q0 -400 303 -957z" />
<glyph unicode=")" horiz-adv-x="622" d="M524 539q0 -240 -86 -470.5t-241 -484.5h-103q301 557 301 957q0 160 -39 315.5t-97 293.5t-155 325h103q109 -201 169 -329t104 -286.5t44 -320.5z" />
<glyph unicode="*" d="M877 1280l36 -111l-286 -84l186 -235l-96 -70l-168 250l-166 -250l-92 68l180 237l-289 84l35 109l281 -102l-11 299h117l-10 -299z" />
<glyph unicode="+" d="M90 750h404v389h108v-389h404v-109h-404v-389h-108v389h-404v109z" />
<glyph unicode="," horiz-adv-x="548" d="M117 -264l114 432h160l-149 -432h-125z" />
<glyph unicode="-" horiz-adv-x="450" d="M20 453v104h410v-104h-410z" />
<glyph unicode="." horiz-adv-x="548" d="M193 0v168h161v-168h-161z" />
<glyph unicode="/" horiz-adv-x="851" d="M-53 -416l717 1891h116l-717 -1891h-116z" />
<glyph unicode="0" d="M549 -18q-203 0 -327 164.5t-124 558.5q0 272 100.5 471.5t348.5 199.5q221 0 336.5 -177t115.5 -517q1 -700 -450 -700zM551 94q152 0 231.5 149.5t79.5 436.5q0 289 -80 436.5t-235 147.5q-152 0 -231.5 -147.5t-79.5 -430.5q0 -285 81.5 -438.5t233.5 -153.5z" />
<glyph unicode="1" d="M553 0v1208l-225 -192l-76 88l313 262h115v-1366h-127z" />
<glyph unicode="2" d="M895 1044q0 -121 -54.5 -232.5t-140.5 -224t-222 -260t-214 -210.5h668v-117h-823v111l335 351q88 95 200 264t112 294q0 98 -75 164.5t-185 66.5q-76 0 -150 -22.5t-170 -75.5l-24 133q199 90 356 90q166 0 276.5 -94.5t110.5 -237.5z" />
<glyph unicode="3" d="M930 1034q0 -121 -83 -207t-206 -110q133 -14 217 -106.5t84 -227.5q0 -180 -136 -286.5t-368 -106.5q-174 0 -336 53l17 131q86 -35 162.5 -53.5t150.5 -18.5q166 0 269.5 79t103.5 206q0 141 -108.5 203.5t-260.5 62.5h-137v115q207 0 350.5 45t143.5 207 q0 104 -86 169.5t-226 65.5q-78 0 -142.5 -14t-160.5 -53l-10 131q154 57 319 57q197 0 320 -94t123 -248z" />
<glyph unicode="4" d="M1042 436v-117h-204v-319h-129v319h-664v123l623 924h170v-930h204zM180 436h529q0 111 -1 233t-1 300v197q0 60 2 75q-12 -29 -131 -210l-226 -340z" />
<glyph unicode="5" d="M315 1264l-4 -441q92 33 209 33q213 0 334 -112.5t121 -309.5q0 -207 -137.5 -325.5t-374.5 -118.5q-82 0 -141.5 10t-151.5 41l2 131q158 -70 291 -70q170 0 272.5 90.5t102.5 241.5q0 143 -92.5 225t-262.5 82q-80 0 -142 -8t-157 -33l9 666h714v-102h-592z" />
<glyph unicode="6" d="M696 1264q-236 0 -347 -172t-111 -420q57 92 150 140t204 48q182 0 297 -121t115 -317q0 -197 -122 -321t-317 -124q-221 0 -337.5 162t-116.5 475q0 371 150.5 566.5t436.5 195.5q63 0 119.5 -8t134.5 -29l-14 -122q-133 47 -242 47zM559 90q135 0 221 92t86 244 q0 145 -82 233.5t-219 88.5q-133 0 -217 -90.5t-84 -235.5q0 -147 82 -239.5t213 -92.5z" />
<glyph unicode="7" d="M422 0h-146l541 1247h-700v119h841v-119z" />
<glyph unicode="8" d="M555 -23q-188 0 -326.5 96.5t-138.5 280.5q0 139 95.5 228.5t240.5 119.5q-121 31 -207 129.5t-86 219.5q0 158 128 241.5t298 83.5q156 0 276.5 -81t120.5 -230q0 -121 -88 -218t-213 -140q141 -18 247 -120t106 -241q0 -178 -134.5 -273.5t-318.5 -95.5zM551 1264 q-109 0 -194 -58.5t-85 -165.5q0 -109 73 -166t216 -126q125 80 191.5 143t66.5 160q0 96 -84 154.5t-184 58.5zM559 90q119 0 215 70.5t96 187.5q0 119 -96 185.5t-250 121.5q-176 -74 -236.5 -140t-60.5 -155q0 -125 100.5 -197.5t231.5 -72.5z" />
<glyph unicode="9" d="M395 102q236 0 347.5 168t111.5 414q-53 -92 -147.5 -140t-206.5 -48q-182 0 -297 120.5t-115 315.5q0 197 122 320.5t316 123.5q248 0 350.5 -181t102.5 -450q0 -756 -586 -755q-113 0 -252 37l13 123q135 -48 241 -48zM532 1264q-135 0 -221 -92.5t-86 -241.5 q0 -145 82 -233.5t219 -88.5q135 0 218 89t83 235q0 147 -82 239.5t-213 92.5z" />
<glyph unicode=":" horiz-adv-x="548" d="M193 0v162h161v-162h-161zM193 831v160h161v-160h-161z" />
<glyph unicode=";" horiz-adv-x="548" d="M211 825v168h160v-168h-160zM117 -264l114 432h160l-149 -432h-125z" />
<glyph unicode="&#x3c;" horiz-adv-x="1024" d="M201 688l753 -338v-123l-886 408v108l886 408v-125z" />
<glyph unicode="=" d="M1006 614v-108h-916v108h916zM1006 889v-111h-916v111h916z" />
<glyph unicode="&#x3e;" horiz-adv-x="1024" d="M823 686l-753 340v123l886 -408v-108l-886 -408v123z" />
<glyph unicode="?" horiz-adv-x="1009" d="M872 1034q0 -121 -163.5 -333t-163.5 -334l2 -31h-121v70q4 31 11 75.5t157.5 239t150.5 301.5q0 106 -73.5 169.5t-196.5 63.5q-59 0 -116.5 -12t-139.5 -43l-8 125q139 49 278 49q176 0 279.5 -93t103.5 -247zM408 0v164h161v-164h-161z" />
<glyph unicode="@" horiz-adv-x="1581" d="M1073 571l-12 -96q0 -92 76 -92q92 0 163.5 120t71.5 275q0 225 -153.5 368.5t-395.5 143.5q-256 0 -431 -175t-175 -433q0 -272 177 -440t452 -168q221 0 432 102l6 2l33 -94l-6 -2q-221 -104 -465 -105q-313 0 -523 196t-210 509q0 299 204.5 501.5t505.5 202.5 q279 0 463 -172t184 -434q0 -195 -101 -341t-234 -146q-121 0 -154 127q-90 -135 -246 -135q-129 0 -211 93t-82 243q0 166 104.5 292.5t244.5 126.5q100 0 141 -26.5t98 -116.5l25 117h104zM559 621q0 -102 53.5 -167t139.5 -65q102 0 169.5 96.5t67.5 243.5 q0 84 -47 143.5t-129 59.5q-102 0 -178 -93t-76 -218z" />
<glyph unicode="A" horiz-adv-x="1312" d="M1149 0l-150 367h-696l-147 -367h-133l550 1366h158l559 -1366h-141zM350 481h600l-102 259l-129 329q-63 162 -68 178z" />
<glyph unicode="B" horiz-adv-x="1099" d="M936 1018q0 -119 -67.5 -194.5t-186.5 -106.5q133 -14 215 -108.5t82 -233.5q0 -211 -146.5 -293t-373.5 -82h-283v1366h281q205 0 342 -79t137 -269zM453 768q141 0 242.5 57.5t101.5 190.5q0 127 -100.5 180t-239.5 53h-150v-481h146zM455 117q162 0 274.5 57 t112.5 205q0 141 -80 194.5t-137.5 65.5t-169.5 12h-148v-534h148z" />
<glyph unicode="C" horiz-adv-x="1206" d="M813 1255q-258 0 -411.5 -157.5t-153.5 -419.5q0 -260 153.5 -413.5t415.5 -153.5q166 0 301 63l8 -131q-133 -49 -297 -49q-330 0 -525 184t-195 514q0 307 194.5 493.5t517.5 186.5q88 0 158 -12t149 -43l-12 -125q-82 35 -151.5 49t-151.5 14z" />
<glyph unicode="D" horiz-adv-x="1314" d="M893 1280q143 -78 227 -239.5t84 -362.5q0 -188 -80 -339t-242.5 -245t-492.5 -94h-213v1366h186q213 0 326 -18.5t205 -67.5zM446 117q293 0 457 149.5t164 417.5q0 166 -63.5 293t-156.5 181t-183.5 72.5t-227.5 18.5h-129v-1132h139z" />
<glyph unicode="E" horiz-adv-x="993" d="M846 1249h-539v-487h514v-115h-514v-530h563v-117h-694v1366h670v-117z" />
<glyph unicode="F" horiz-adv-x="905" d="M823 1249h-516v-485h496v-115h-496v-649h-131v1366h647v-117z" />
<glyph unicode="G" horiz-adv-x="1386" d="M819 1255q-258 0 -414.5 -154.5t-156.5 -410.5q0 -260 163.5 -419.5t428.5 -159.5q68 0 124 10t132 35v458h-320v117h451v-663q-197 -74 -408 -74q-309 0 -508.5 193.5t-199.5 504.5q0 309 193.5 494.5t514.5 185.5q203 0 355 -63l-19 -123q-182 69 -336 69z" />
<glyph unicode="H" horiz-adv-x="1316" d="M1010 0v657h-703v-657h-131v1366h131v-594h703v594h131v-1366h-131z" />
<glyph unicode="I" horiz-adv-x="509" d="M188 0v1366h131v-1366h-131z" />
<glyph unicode="J" horiz-adv-x="696" d="M201 -10q-51 0 -84 7t-54 11l5 115q76 -16 114 -17q131 0 170 90.5t39 239.5v930h131v-930q0 -207 -64 -326.5t-257 -119.5z" />
<glyph unicode="K" horiz-adv-x="1189" d="M930 1366h174l-658 -645l721 -721h-186l-674 686v-686h-131v1366h131v-614z" />
<glyph unicode="L" horiz-adv-x="909" d="M862 117v-117h-686v1366h131v-1249h555z" />
<glyph unicode="M" horiz-adv-x="1759" d="M1452 0v1229l-524 -1229h-115l-506 1229v-1229h-131v1366h197l499 -1225l510 1225h201v-1366h-131z" />
<glyph unicode="N" horiz-adv-x="1339" d="M1016 0l-717 1171v-1171h-131v1366h162l710 -1173v1173h131v-1366h-155z" />
<glyph unicode="O" horiz-adv-x="1439" d="M723 -12q-266 0 -432 190.5t-166 499.5q0 287 153.5 490.5t430.5 203.5q289 0 447.5 -203.5t158.5 -500.5q0 -307 -162 -493.5t-430 -186.5zM721 104q209 0 335 155t126 407q0 242 -117 415.5t-346 173.5q-223 0 -342 -171t-119 -406q0 -260 126 -417t337 -157z" />
<glyph unicode="P" horiz-adv-x="997" d="M758 1303q86 -51 133 -137.5t47 -190.5q0 -201 -112.5 -276.5t-190.5 -94t-203 -18.5h-125v-586h-131v1366h258q123 0 195 -14t129 -49zM430 702q164 0 267.5 61.5t103.5 213.5t-102.5 212t-264.5 60h-127v-547h123z" />
<glyph unicode="Q" horiz-adv-x="1439" d="M1087 -262l-264 244l-100 -5q-287 0 -446.5 205t-159.5 500q0 291 156.5 490.5t441.5 199.5q276 0 443 -191.5t167 -508.5q0 -219 -90 -393.5t-277 -260.5l312 -280h-183zM721 94q211 0 338 158t127 420q0 238 -117 411.5t-346 173.5q-213 0 -341 -158.5t-128 -420.5 q0 -264 127 -424t340 -160z" />
<glyph unicode="R" horiz-adv-x="1103" d="M772 1307q164 -98 164 -295q0 -137 -86 -224.5t-225 -107.5q72 -10 109.5 -49t88.5 -154l217 -477h-145l-186 418q-49 111 -95.5 161t-144.5 50h-162v-629h-131v1366h264q137 0 207 -12t125 -47zM416 745q109 0 173 16.5t137 76t73 172.5q0 141 -102.5 190t-258.5 49 h-131v-504h109z" />
<glyph unicode="S" horiz-adv-x="1007" d="M559 1255q-129 0 -211 -61t-82 -162q0 -121 157 -210l310 -173q164 -117 164 -289t-122 -277.5t-320 -105.5q-158 0 -318 58l13 139q158 -80 305 -80q135 0 219 72t84 186q0 135 -157 222l-308 169q-164 113 -164 285q0 160 113.5 252t312.5 92q137 0 276 -47l-16 -127 q-129 57 -256 57z" />
<glyph unicode="T" horiz-adv-x="1007" d="M569 1249v-1249h-131v1249h-409v117h948v-117h-408z" />
<glyph unicode="U" horiz-adv-x="1341" d="M1137 279q-53 -143 -175 -222.5t-286 -79.5t-284 76t-168 201t-48 338v774h131v-774q0 -203 40 -293t130 -147.5t197 -57.5q119 0 214 68.5t124.5 162t29.5 267.5v774h132v-780q0 -115 -8.5 -184.5t-28.5 -122.5z" />
<glyph unicode="V" horiz-adv-x="1218" d="M543 0l-520 1366h143l452 -1227l447 1227h133l-510 -1366h-145z" />
<glyph unicode="W" horiz-adv-x="1867" d="M1290 0l-356 1229l-350 -1229h-164l-400 1366h138l348 -1235l346 1235h166l356 -1241l340 1241h131l-391 -1366h-164z" />
<glyph unicode="X" horiz-adv-x="1224" d="M1198 0h-162l-424 618l-432 -618h-151l501 717l-464 649h157l393 -559l388 559h151l-461 -649z" />
<glyph unicode="Y" horiz-adv-x="1204" d="M670 0h-131v575l-519 791h158l428 -668l426 668h150l-512 -786v-580z" />
<glyph unicode="Z" horiz-adv-x="1017" d="M217 123h731v-117h-887v117l719 1126h-700v117h848v-123z" />
<glyph unicode="[" horiz-adv-x="649" d="M287 1389v-1715h190v-90h-305v1891h305v-86h-190z" />
<glyph unicode="\" horiz-adv-x="851" d="M905 -416h-117l-716 1891h116z" />
<glyph unicode="]" horiz-adv-x="651" d="M479 -416h-307v90h193v1715h-193v86h307v-1891z" />
<glyph unicode="^" horiz-adv-x="1024" d="M432 1368h162l369 -606h-136l-317 510l-313 -510h-136z" />
<glyph unicode="_" horiz-adv-x="1024" d="M1049 -258h-1072v115h1072v-115z" />
<glyph unicode="`" horiz-adv-x="1024" d="M610 1176h-112l-248 262h184z" />
<glyph unicode="a" horiz-adv-x="1007" d="M813 834q18 -41 26.5 -98.5t8.5 -162.5l12 -573h-117l-2 74l4 108q-109 -197 -339 -196q-143 0 -230.5 78.5t-87.5 209.5q0 160 140.5 245t404.5 85q31 0 92 -6q0 147 -54.5 223t-195.5 76q-70 0 -129 -18.5t-145 -69.5l2 131q143 66 305 66q229 0 305 -172zM217 268 q0 -80 57.5 -131t149.5 -51q160 0 231.5 104.5t71.5 270.5v37l-78 4q-172 0 -302 -47.5t-130 -186.5z" />
<glyph unicode="b" horiz-adv-x="1095" d="M268 801q41 92 134.5 148.5t201.5 56.5q182 0 293 -136.5t111 -363.5q0 -217 -100.5 -368.5t-307.5 -151.5q-229 0 -332 202l4 -188h-122v1475h126v-502v-43q0 -72 -8 -129zM276 502q0 -184 85 -300t223 -116q137 0 216 109.5t79 298.5q0 193 -76 302t-209 109 q-139 0 -228.5 -113.5t-89.5 -289.5z" />
<glyph unicode="c" horiz-adv-x="876" d="M594 901q-174 0 -283.5 -111.5t-109.5 -287.5q0 -178 108.5 -297t270.5 -119q137 0 245 61l13 -129q-45 -20 -118 -32.5t-147 -12.5q-221 0 -363 148.5t-142 380.5q0 229 144 373.5t374 144.5q68 0 127 -8t114 -29l-6 -133q-121 51 -227 51z" />
<glyph unicode="d" d="M829 0v25v26v25v24v60q0 25 -2 45q-31 -96 -123 -157.5t-206 -61.5q-188 0 -300 138t-112 370q0 231 109.5 371.5t289.5 140.5q229 0 332 -203l-6 174v498h127v-1475h-109zM215 504q0 -195 78 -306.5t215 -111.5q139 0 224 113.5t85 298.5q0 178 -88 292.5t-227 114.5 q-131 0 -209 -108.5t-78 -292.5z" />
<glyph unicode="e" horiz-adv-x="1005" d="M836 164l4 -127q-133 -59 -279 -60q-225 0 -350 139.5t-125 393.5q0 233 118 371.5t316 138.5q221 0 309.5 -155.5t88.5 -393.5h-707q0 -176 96 -280.5t252 -104.5q152 0 277 78zM215 573h576q0 141 -69 238.5t-208 97.5q-129 0 -206 -99.5t-93 -236.5z" />
<glyph unicode="f" horiz-adv-x="663" d="M526 1374q-98 0 -126.5 -75.5t-28.5 -192.5v-113h231v-102h-231v-891h-125v891h-209v102h209v107q0 180 54 282.5t220 102.5q47 0 109 -19l-11 -110q-53 18 -92 18z" />
<glyph unicode="g" horiz-adv-x="1114" d="M481 -430q-145 0 -303 59l8 133q158 -78 293 -77q106 0 187.5 44t116 119.5t41.5 154.5t7 220q-33 -104 -123 -169.5t-204 -65.5q-182 0 -299 145.5t-117 376.5q0 225 112.5 360.5t301.5 135.5q227 0 329 -205l-8 190h121v-936q0 -229 -116 -357t-347 -128zM512 96 q135 0 223 115t88 293q0 172 -90 282.5t-229 110.5q-127 0 -207 -108.5t-80 -280.5q0 -186 80 -299t215 -113z" />
<glyph unicode="h" horiz-adv-x="1083" d="M598 1006q166 0 250 -101.5t84 -267.5l4 -174v-463h-125v463l-4 190q-10 119 -69.5 181.5t-162.5 62.5q-80 0 -150.5 -47t-99 -103.5t-37.5 -92.5t-9 -93l-5 -98v-463h-124v1475h124v-43v-56v-73v-74v-68v-61v-51v-43v-37v-31v-25q0 -88 -6 -100q49 90 137.5 141.5 t192.5 51.5z" />
<glyph unicode="i" horiz-adv-x="423" d="M139 1278v168h146v-168h-146zM150 0v993h124v-993h-124z" />
<glyph unicode="j" horiz-adv-x="428" d="M139 1274v168h146v-168h-146zM33 -420q-27 0 -44.5 2t-54.5 10l7 113q43 -16 73 -16q90 0 114 66.5t24 176.5v1061h124v-1061q0 -174 -43.5 -263t-199.5 -89z" />
<glyph unicode="k" horiz-adv-x="968" d="M731 993h162l-504 -434l559 -559h-170l-504 512v-512h-124v1475h124v-885z" />
<glyph unicode="l" horiz-adv-x="423" d="M150 0v1475h124v-1475h-124z" />
<glyph unicode="m" horiz-adv-x="1650" d="M858 784q35 100 124 161t202 61q193 0 255 -134.5t62 -351.5v-520h-125v516q0 166 -36.5 273.5t-170.5 107.5q-117 0 -197.5 -99.5t-80.5 -246.5v-82v-469h-123v469q0 195 -31.5 311.5t-173.5 116.5q-80 0 -145.5 -50t-93 -117.5t-33.5 -113t-6 -133.5v-483h-125v483 l-13 510h119v-196q100 209 314 209q113 0 188.5 -60t89.5 -162z" />
<glyph unicode="n" horiz-adv-x="1093" d="M604 1006q113 0 195 -53.5t107.5 -123t32.5 -142.5t7 -185v-502h-125v498q0 123 -6 178t-28.5 105t-77 83t-123.5 33q-78 0 -145.5 -41t-101.5 -101.5t-44 -112.5t-10 -150v-492h-125v618l-10 375h118v-198q45 96 134 153.5t202 57.5z" />
<glyph unicode="o" horiz-adv-x="1103" d="M555 -25q-211 0 -339 142.5t-128 378.5q0 240 127 381t342 141q209 0 334 -141.5t125 -380.5q0 -233 -127 -377t-334 -144zM553 76q145 0 239.5 118.5t94.5 301.5q0 184 -93.5 304t-238.5 120q-150 0 -244 -119t-94 -307q0 -180 94.5 -299t241.5 -119z" />
<glyph unicode="p" d="M612 1006q182 0 293 -136.5t111 -363.5q0 -217 -100.5 -368.5t-307.5 -151.5q-227 0 -323 192q2 -12 2 -93v-165v-257v-83h-125l-2 1079l-10 332h122v-205q39 100 131 160t209 60zM592 86q137 0 216 109.5t79 302.5q0 188 -77 297.5t-208 109.5q-150 0 -234.5 -124 t-84.5 -279q0 -188 85 -302t224 -114z" />
<glyph unicode="q" horiz-adv-x="1103" d="M821 -416v389q0 197 6 232q-35 -100 -124 -158.5t-205 -58.5q-186 0 -299 140t-113 374q0 227 109.5 365.5t291.5 138.5q115 0 205 -55.5t135 -153.5l-4 196h121l2 -1409h-125zM512 86q133 0 221 116.5t88 295.5q0 178 -90 292.5t-229 114.5q-131 0 -209 -108.5 t-78 -296.5q0 -193 80 -303.5t217 -110.5z" />
<glyph unicode="r" horiz-adv-x="669" d="M541 1006q20 0 82 -13v-127q-37 12 -74 13q-123 0 -192.5 -95.5t-69.5 -222.5v-561h-125v594l-12 399h131l-2 -213q37 106 97.5 166t164.5 60z" />
<glyph unicode="s" horiz-adv-x="786" d="M420 911q-92 0 -147.5 -38.5t-55.5 -102.5q0 -82 123 -149l244 -132q129 -92 129 -227q0 -125 -102.5 -202.5t-266.5 -77.5q-131 0 -262 49l10 127q133 -68 244 -68q102 0 172 49t70 123q0 96 -127 170l-236 125q-129 86 -129 211q0 117 90 184.5t246 67.5q106 0 242 -43 l-11 -117q-124 51 -233 51z" />
<glyph unicode="t" horiz-adv-x="673" d="M41 993h203v244l125 43v-287h235v-102h-235v-496q0 -115 4 -152.5t18 -70.5q39 -70 135 -70q43 0 92 19l7 -109q-66 -18 -125 -18q-147 0 -201.5 76.5t-54.5 232.5v92v496h-203v102z" />
<glyph unicode="u" horiz-adv-x="1087" d="M938 0h-117v120v83q-92 -217 -334 -217q-213 0 -267 118.5t-62 182t-8 153.5v62v491h124v-491q0 -186 40 -297t194 -111q158 0 216 106.5t67.5 167t9.5 142.5v483h125v-631q0 -106 2 -189t10 -173z" />
<glyph unicode="v" horiz-adv-x="886" d="M371 0l-344 993h133l286 -860l285 860h127l-340 -993h-147z" />
<glyph unicode="w" horiz-adv-x="1550" d="M1055 0l-285 864l-268 -864h-148l-325 993h135l268 -874l268 874h150l283 -872l262 872h129l-322 -993h-147z" />
<glyph unicode="x" horiz-adv-x="894" d="M868 0h-151l-275 424l-270 -424h-143l344 524l-318 469h152l244 -375l237 375h146l-314 -469z" />
<glyph unicode="y" horiz-adv-x="886" d="M184 -422q-31 0 -104 14l12 111q47 -16 78 -16q92 0 128 63.5t89 214.5l-358 1028h133l289 -846l282 846h127l-381 -1114q-63 -188 -129 -244.5t-166 -56.5z" />
<glyph unicode="z" horiz-adv-x="897" d="M223 102h598v-102h-749v102l592 789h-572v102h723v-106z" />
<glyph unicode="{" horiz-adv-x="1024" d="M473 -117q0 -123 42 -167t163 -44v-88q-176 0 -248 62.5t-72 240.5v402q0 90 -25.5 134t-90.5 62v86q63 18 89.5 63.5t26.5 133.5v428q0 160 78 219.5t242 59.5v-86q-119 0 -162 -43t-43 -162v-422q0 -100 -21.5 -149.5t-80.5 -84.5q57 -35 79.5 -88t22.5 -149v-408z" />
<glyph unicode="|" horiz-adv-x="1024" d="M573 -342h-122v1706h122v-1706z" />
<glyph unicode="}" horiz-adv-x="1024" d="M549 1178q0 123 -42 167t-161 44v86q176 0 247 -60.5t71 -243.5v-401q0 -92 25.5 -134t92.5 -63v-84q-66 -20 -92 -63t-26 -133v-430q0 -158 -76 -218.5t-242 -60.5v88q117 0 160 43t43 160v424q0 96 22.5 146.5t81.5 86.5q-59 35 -81.5 86.5t-22.5 151.5v408z" />
<glyph unicode="~" horiz-adv-x="1024" d="M295 821q72 0 225.5 -71.5t210.5 -71.5q61 0 101 29.5t94 117.5l75 -45q-51 -100 -118.5 -160.5t-165.5 -60.5q-80 0 -217.5 73t-212.5 73q-106 0 -191 -156l-76 49q55 117 121 170t154 53z" />
<glyph unicode="&#x2dc;" horiz-adv-x="1024" d="M295 821q72 0 225.5 -71.5t210.5 -71.5q61 0 101 29.5t94 117.5l75 -45q-51 -100 -118.5 -160.5t-165.5 -60.5q-80 0 -217.5 73t-212.5 73q-106 0 -191 -156l-76 49q55 117 121 170t154 53z" />
<glyph unicode="&#xa1;" horiz-adv-x="737" d="M309 649h115l25 -1028h-162zM287 987h162v-164h-162v164z" />
<glyph unicode="&#xa2;" d="M713 1069v-778q63 0 115.5 13t105.5 38l14 -121q-63 -25 -110 -33t-125 -8v-170h-92v170q-193 31 -305.5 170t-112.5 336q0 195 112.5 328t305.5 166v166h92v-162q113 0 221 -37l-6 -125q-68 27 -106.5 37t-108.5 10zM621 299v760q-281 -76 -281 -371q0 -147 74 -249.5 t207 -139.5z" />
<glyph unicode="&#xa3;" d="M762 1255q-172 0 -232.5 -103t-60.5 -290v-86h330v-102h-330v-557h489v-117h-821v117h203v557h-180v102h180q0 287 80 440.5t338 153.5q57 0 101 -8t126 -35l-18 -119q-66 27 -112 37t-93 10z" />
<glyph unicode="&#xa4;" d="M166 592q0 121 82 229l-154 152l66 67l153 -153q113 86 236 86q125 0 233 -84l154 149l65 -65l-151 -152q82 -109 82 -231q0 -127 -82 -232l154 -153l-66 -66l-154 152q-106 -82 -233 -82q-117 0 -236 82l-151 -152l-66 66l150 151q-82 105 -82 236zM549 317 q111 0 190.5 80t79.5 193q0 115 -78.5 193.5t-191.5 78.5t-191.5 -78.5t-78.5 -193.5q0 -113 77.5 -193t192.5 -80z" />
<glyph unicode="&#xa5;" d="M1034 784h-299l-117 -198h396v-105h-400v-481h-129v481h-403v105h397l-117 198h-301v105h240l-281 477h150l301 -516q8 -25 42 -83t42 -79q12 31 38 78l48 88l295 512h139l-280 -477h239v-105z" />
<glyph unicode="&#xa6;" horiz-adv-x="1024" d="M573 690h-122v674h122v-674zM573 -342h-122v655h122v-655z" />
<glyph unicode="&#xa7;" d="M604 1380q-127 0 -206 -56t-79 -148q0 -117 164 -206l324 -171q172 -117 172 -283q0 -178 -199 -309q86 -43 136.5 -119t50.5 -170q0 -160 -129 -258t-342 -98q-168 0 -375 80l20 137q109 -51 187 -71.5t166 -20.5q150 0 236.5 59t86.5 164q0 141 -194 233l-189 88 q-295 137 -295 330q0 104 61.5 184t164.5 144l8 6q-90 45 -143.5 115.5t-53.5 167.5q0 160 124 239.5t290 79.5q154 0 319 -57l-16 -129q-152 69 -289 69zM692 260q57 29 104.5 103.5t47.5 140.5q0 137 -174 225l-219 113q-61 -31 -119 -105.5t-58 -142.5q0 -139 161 -215z " />
<glyph unicode="&#xa8;" horiz-adv-x="1024" d="M614 1219v178h144v-178h-144zM264 1219v178h144v-178h-144z" />
<glyph unicode="&#xa9;" horiz-adv-x="1630" d="M860 1001q-152 0 -241 -85t-89 -228q0 -141 89.5 -224t242.5 -83q51 0 83 7t108 32l4 -94q-92 -31 -187 -31q-205 0 -323.5 106.5t-118.5 294.5q0 178 119 284.5t317 106.5q86 0 195 -34l-8 -90q-55 18 -101.5 28t-89.5 10zM817 -23q-293 0 -498.5 206t-205.5 499 t205.5 498.5t498.5 205.5q291 0 497 -205.5t206 -498.5t-206 -499t-497 -206zM817 47q256 0 440.5 186.5t184.5 448.5t-182.5 448.5t-442.5 186.5q-258 0 -442.5 -186.5t-184.5 -448.5q0 -264 183.5 -449.5t443.5 -185.5z" />
<glyph unicode="&#xaa;" horiz-adv-x="702" d="M596 1122l8 -348h-92l-2 47v35q-76 -90 -201 -90q-96 0 -153.5 49t-57.5 129q0 98 90.5 151.5t262.5 53.5l49 -2q0 82 -35 119t-113 37q-47 0 -92 -15.5t-92 -42.5l2 98q37 25 89 34t112 9q127 0 176 -66.5t49 -197.5zM199 942q0 -43 33.5 -70.5t86.5 -27.5 q102 0 141.5 59.5t39.5 165.5h-39q-262 0 -262 -127zM98 600v84h506v-84h-506z" />
<glyph unicode="&#xab;" d="M924 102h-119l-270 404l272 401h117l-260 -401zM580 102h-117l-273 404l275 401h115l-261 -401z" />
<glyph unicode="&#xac;" horiz-adv-x="1024" d="M68 432v115h886v-547h-123v432h-763z" />
<glyph unicode="&#xad;" horiz-adv-x="450" d="M20 453v104h410v-104h-410z" />
<glyph unicode="&#xae;" horiz-adv-x="1630" d="M1057 877q0 -66 -42 -117t-112 -72q27 -14 44.5 -35.5t39.5 -70.5l137 -283h-108l-115 240q-35 72 -60.5 92t-82.5 20h-80v-352h-96v784h168q133 0 220 -41.5t87 -164.5zM733 737q117 0 169 38t52 99q0 76 -60 100.5t-146 24.5h-70v-262h55zM817 -23q-293 0 -498.5 206 t-205.5 499t205.5 498.5t498.5 205.5q291 0 497 -205.5t206 -498.5t-206 -499t-497 -206zM817 47q256 0 440.5 186.5t184.5 448.5t-182.5 448.5t-442.5 186.5q-258 0 -442.5 -186.5t-184.5 -448.5q0 -264 183.5 -449.5t443.5 -185.5z" />
<glyph unicode="&#xb0;" horiz-adv-x="765" d="M668 1221q0 -115 -84 -197t-201 -82t-201 82t-84 197t83 195.5t202 80.5t202 -80.5t83 -195.5zM584 1219q0 82 -58.5 140t-142.5 58q-82 0 -141.5 -57t-59.5 -139q0 -84 57.5 -141.5t143.5 -57.5q82 0 141.5 57.5t59.5 139.5z" />
<glyph unicode="&#xb1;" d="M90 752h404v389h108v-389h404v-111h-404v-389h-108v389h-404v111zM1006 150v-109h-916v109h916z" />
<glyph unicode="&#xb2;" horiz-adv-x="724" d="M590 1174q0 -135 -100.5 -259t-274.5 -280h51h348v-88h-538v80q174 162 290.5 294t116.5 238q0 53 -43 90t-110 37q-88 0 -209 -63l-21 98q131 57 238 57q109 0 180.5 -57t71.5 -147z" />
<glyph unicode="&#xb3;" horiz-adv-x="724" d="M614 1165q0 -61 -38.5 -112.5t-104.5 -73.5q68 -20 109 -73.5t41 -123.5q0 -111 -88.5 -176t-237.5 -65q-113 0 -223 34l14 97q113 -45 203 -45q102 0 164.5 44t62.5 113q0 70 -58.5 109t-164.5 39l-96 -2v88h57q254 0 254 139q0 59 -50 94t-136 35q-55 0 -94.5 -8 t-104.5 -37l-10 98q98 37 213 37q131 0 209.5 -58.5t78.5 -152.5z" />
<glyph unicode="&#xb4;" horiz-adv-x="1024" d="M414 1176l176 262h184l-250 -262h-110z" />
<glyph unicode="&#xb5;" horiz-adv-x="1036" d="M236 981v-555q0 -117 16 -175t80.5 -118.5t175.5 -60.5q147 0 220 110.5t73 263.5v535h123v-981h-123v188q-49 -109 -121 -161t-174 -52q-170 0 -270 156v-471h-123v1321h123z" />
<glyph unicode="&#xb6;" d="M397 641q-158 0 -256 100.5t-98 257.5q0 184 116.5 275.5t305.5 91.5h491v-98h-116v-1684h-107v1684h-196v-1684h-109v1059z" />
<glyph unicode="&#xb7;" horiz-adv-x="548" d="M193 422v168h161v-168h-161z" />
<glyph unicode="&#x2219;" horiz-adv-x="548" d="M193 422v168h161v-168h-161z" />
<glyph unicode="&#xb8;" horiz-adv-x="1024" d="M717 -115q70 0 115 -39t45 -100q0 -70 -61.5 -117t-153.5 -47q-88 0 -189 47l35 68q82 -37 143 -37q45 0 74 20.5t29 57.5q0 80 -101 80q-23 0 -57 -8l-29 30l111 160h84l-84 -117z" />
<glyph unicode="&#xb9;" horiz-adv-x="724" d="M356 547v620v74v10q-20 -20 -66 -56l-69 -52l-59 65l209 164h84v-825h-99z" />
<glyph unicode="&#xba;" horiz-adv-x="800" d="M403 754q-137 0 -221 86t-84 229q0 145 82 231t223 86q135 0 217 -86t82 -231q0 -141 -83 -228t-216 -87zM401 831q86 0 143.5 68t57.5 170q0 106 -55 173t-146 67q-92 0 -147 -65.5t-55 -174.5q0 -102 57 -170t145 -68zM119 600v84h563v-84h-563z" />
<glyph unicode="&#xbb;" d="M563 506l-272 -404h-117l260 404l-260 401h117zM907 506l-272 -404h-117l260 404l-260 401h115z" />
<glyph unicode="&#xbc;" horiz-adv-x="1714" d="M356 547v620v74v10q-20 -20 -66 -56l-69 -52l-59 65l209 164h84v-825h-99zM434 -63l744 1493h100l-741 -1493h-103zM1671 279v-91h-129v-188h-100v188h-418v86l397 551h121v-546h129zM1137 279h305l2 430z" />
<glyph unicode="&#xbd;" horiz-adv-x="1714" d="M356 547v620v74v10q-20 -20 -66 -56l-69 -52l-59 65l209 164h84v-825h-99zM434 -63l744 1493h100l-741 -1493h-103zM1577 629q0 -137 -102.5 -264t-272.5 -277h53h347v-88h-539v80q195 182 301 301t106 231q0 53 -43 90t-110 37q-88 0 -209 -63l-18 98q129 57 235 57 q109 0 180.5 -57t71.5 -145z" />
<glyph unicode="&#xbe;" horiz-adv-x="1714" d="M614 1165q0 -61 -38.5 -112.5t-104.5 -73.5q68 -20 109 -73.5t41 -123.5q0 -111 -88.5 -176t-237.5 -65q-113 0 -223 34l14 97q113 -45 203 -45q100 0 163.5 43t63.5 114q0 68 -56.5 107t-158.5 39h-104v88h57q254 0 254 139q0 59 -50 94t-136 35q-55 0 -94.5 -8 t-104.5 -37l-10 98q109 37 213 37q131 0 209.5 -58.5t78.5 -152.5zM436 -63l744 1493h100l-743 -1493h-101zM1671 279v-91h-129l2 -188h-100v188h-420v86l397 551h121v-546h129zM1137 279h307v430z" />
<glyph unicode="&#xbf;" horiz-adv-x="1009" d="M137 -47q0 127 84 244l158 194q86 123 86 260h119q0 -29 -2 -63.5t-8.5 -82.5t-157 -239.5t-150.5 -300.5q0 -106 73 -170.5t196 -64.5q106 0 258 57l6 -125q-135 -49 -279 -49q-174 0 -278.5 92t-104.5 248zM602 987v-164h-160v164h160z" />
<glyph unicode="&#xc0;" horiz-adv-x="1312" d="M1149 0l-150 367h-696l-147 -367h-133l550 1366h158l559 -1366h-141zM350 481h600l-102 259l-129 329q-63 162 -68 178zM768 1516h-112l-248 262h184z" />
<glyph unicode="&#xc1;" horiz-adv-x="1312" d="M1149 0l-150 367h-696l-147 -367h-133l550 1366h158l559 -1366h-141zM350 481h600l-102 259l-129 329q-63 162 -68 178zM545 1516l176 262h184l-250 -262h-110z" />
<glyph unicode="&#xc2;" horiz-adv-x="1312" d="M1149 0l-150 367h-696l-147 -367h-133l550 1366h158l559 -1366h-141zM350 481h600l-102 259l-129 329q-63 162 -68 178zM735 1778l219 -262h-145l-156 188l-160 -188h-135l223 262h154z" />
<glyph unicode="&#xc3;" horiz-adv-x="1312" d="M1149 0l-150 367h-696l-147 -367h-133l550 1366h158l559 -1366h-141zM350 481h600l-102 259l-129 329q-63 162 -68 178zM524 1632q-55 0 -76 -69h-76q0 78 44 124t118 46q41 0 129 -35t127 -35q57 0 76 63h76q-25 -162 -154 -161q-45 0 -137 33.5t-127 33.5z" />
<glyph unicode="&#xc4;" horiz-adv-x="1312" d="M1149 0l-150 367h-696l-147 -367h-133l550 1366h158l559 -1366h-141zM350 481h600l-102 259l-129 329q-63 162 -68 178zM790 1559v178h144v-178h-144zM440 1559v178h144v-178h-144z" />
<glyph unicode="&#xc5;" horiz-adv-x="1312" d="M1149 0l-150 367h-696l-147 -367h-133l550 1366h158l559 -1366h-141zM350 481h600l-102 259l-129 329q-63 162 -68 178zM686 1466q-74 0 -127 53.5t-53 127.5q0 76 51 129t129 53q76 0 129 -53.5t53 -128.5q0 -74 -53 -127.5t-129 -53.5zM686 1548q43 0 71.5 29t28.5 72 q0 41 -28.5 69.5t-71.5 28.5q-41 0 -70.5 -27.5t-29.5 -70.5t28.5 -72t71.5 -29z" />
<glyph unicode="&#xc6;" horiz-adv-x="1740" d="M1042 1243l35 -481h488v-117h-480l37 -528h494v-117h-619l-26 367h-596l-223 -367h-144l815 1360h768v-117h-549zM963 483l-52 785l-467 -785h519z" />
<glyph unicode="&#xc7;" horiz-adv-x="1214" d="M827 1249q-258 0 -411.5 -153.5t-153.5 -413.5t153.5 -413.5t415.5 -153.5q158 0 304 57l6 -133q-72 -23 -135.5 -33t-149.5 -10l-88 4l-72 -102l39 2q74 0 118 -38t44 -102q0 -68 -62.5 -115.5t-152.5 -47.5q-78 0 -190 49l36 65q80 -37 144 -37q43 0 71.5 22.5 t28.5 55.5q0 35 -26.5 57.5t-71.5 22.5q-20 0 -60 -8l-28 31l104 151q-135 25 -215 61.5t-216 169t-136 455.5q0 305 194.5 489.5t518.5 184.5q168 0 305 -51l-11 -125q-162 59 -303 59z" />
<glyph unicode="&#xc8;" horiz-adv-x="993" d="M846 1249h-539v-487h514v-115h-514v-530h563v-117h-694v1366h670v-117zM608 1516h-112l-248 262h184z" />
<glyph unicode="&#xc9;" horiz-adv-x="993" d="M846 1249h-539v-487h514v-115h-514v-530h563v-117h-694v1366h670v-117zM385 1516l176 262h184l-250 -262h-110z" />
<glyph unicode="&#xca;" horiz-adv-x="993" d="M846 1249h-539v-487h514v-115h-514v-530h563v-117h-694v1366h670v-117zM576 1778l219 -262h-145l-156 188l-160 -188h-135l223 262h154z" />
<glyph unicode="&#xcb;" horiz-adv-x="993" d="M846 1249h-539v-487h514v-115h-514v-530h563v-117h-694v1366h670v-117zM600 1559v178h144v-178h-144zM250 1559v178h144v-178h-144z" />
<glyph unicode="&#xcc;" horiz-adv-x="509" d="M188 0v1366h131v-1366h-131zM366 1516h-112l-248 262h184z" />
<glyph unicode="&#xcd;" horiz-adv-x="509" d="M188 0v1366h131v-1366h-131zM142 1516l176 262h184l-250 -262h-110z" />
<glyph unicode="&#xce;" horiz-adv-x="509" d="M188 0v1366h131v-1366h-131zM314 1778l219 -262h-145l-156 188l-160 -188h-135l223 262h154z" />
<glyph unicode="&#xcf;" horiz-adv-x="509" d="M188 0v1366h131v-1366h-131zM358 1559v178h144v-178h-144zM8 1559v178h144v-178h-144z" />
<glyph unicode="&#xd0;" horiz-adv-x="1318" d="M897 1280q143 -78 227 -239.5t84 -362.5q0 -190 -78.5 -339t-241.5 -244t-497 -95h-211v653h-153v115h153v598h187q213 0 325.5 -18.5t204.5 -67.5zM797 768v-115h-486v-536h140q293 0 456.5 149.5t163.5 415.5q0 164 -63.5 294t-155.5 183t-183 71.5t-229 18.5h-129 v-481h486z" />
<glyph unicode="&#xd1;" horiz-adv-x="1339" d="M1016 0l-717 1171v-1171h-131v1366h162l710 -1173v1173h131v-1366h-155zM537 1632q-55 0 -76 -69h-76q0 78 44 124t118 46q41 0 129 -35t127 -35q57 0 76 63h76q-25 -162 -154 -161q-45 0 -137 33.5t-127 33.5z" />
<glyph unicode="&#xd2;" horiz-adv-x="1439" d="M723 -12q-266 0 -432 190.5t-166 499.5q0 287 153.5 490.5t430.5 203.5q289 0 447.5 -203.5t158.5 -500.5q0 -307 -162 -493.5t-430 -186.5zM721 104q209 0 335 155t126 407q0 242 -117 415.5t-346 173.5q-223 0 -342 -171t-119 -406q0 -260 126 -417t337 -157zM831 1516 h-112l-248 262h184z" />
<glyph unicode="&#xd3;" horiz-adv-x="1439" d="M723 -12q-266 0 -432 190.5t-166 499.5q0 287 153.5 490.5t430.5 203.5q289 0 447.5 -203.5t158.5 -500.5q0 -307 -162 -493.5t-430 -186.5zM721 104q209 0 335 155t126 407q0 242 -117 415.5t-346 173.5q-223 0 -342 -171t-119 -406q0 -260 126 -417t337 -157zM609 1516 l176 262h184l-250 -262h-110z" />
<glyph unicode="&#xd4;" horiz-adv-x="1439" d="M723 -12q-266 0 -432 190.5t-166 499.5q0 287 153.5 490.5t430.5 203.5q289 0 447.5 -203.5t158.5 -500.5q0 -307 -162 -493.5t-430 -186.5zM721 104q209 0 335 155t126 407q0 242 -117 415.5t-346 173.5q-223 0 -342 -171t-119 -406q0 -260 126 -417t337 -157zM799 1778 l219 -262h-145l-156 188l-160 -188h-135l223 262h154z" />
<glyph unicode="&#xd5;" horiz-adv-x="1439" d="M723 -12q-266 0 -432 190.5t-166 499.5q0 287 153.5 490.5t430.5 203.5q289 0 447.5 -203.5t158.5 -500.5q0 -307 -162 -493.5t-430 -186.5zM721 104q209 0 335 155t126 407q0 242 -117 415.5t-346 173.5q-223 0 -342 -171t-119 -406q0 -260 126 -417t337 -157zM588 1632 q-55 0 -76 -69h-76q0 78 44 124t118 46q41 0 129 -35t127 -35q57 0 76 63h76q-25 -162 -154 -161q-45 0 -137 33.5t-127 33.5z" />
<glyph unicode="&#xd6;" horiz-adv-x="1439" d="M723 -12q-266 0 -432 190.5t-166 499.5q0 287 153.5 490.5t430.5 203.5q289 0 447.5 -203.5t158.5 -500.5q0 -307 -162 -493.5t-430 -186.5zM721 104q209 0 335 155t126 407q0 242 -117 415.5t-346 173.5q-223 0 -342 -171t-119 -406q0 -260 126 -417t337 -157zM823 1557 v178h144v-178h-144zM473 1557v178h144v-178h-144z" />
<glyph unicode="&#xd7;" d="M172 397l299 299l-299 299l78 78l299 -299l299 299l78 -78l-299 -299l299 -299l-78 -78l-299 299l-299 -299z" />
<glyph unicode="&#xd8;" horiz-adv-x="1437" d="M1294 1356l-131 -170q162 -205 162 -514q0 -315 -165 -505t-439 -190q-225 0 -385 136l-117 -152l-90 70l127 168q-145 195 -145 481q0 289 157.5 497.5t436.5 208.5q219 0 372 -116l125 160zM248 678q0 -207 96 -375l657 873q-51 45 -124.5 69.5t-157.5 24.5 q-215 0 -343 -161t-128 -431zM721 96q209 0 338 158t129 416q0 242 -109 413l-661 -870q123 -117 303 -117z" />
<glyph unicode="&#xd9;" horiz-adv-x="1341" d="M1137 279q-53 -143 -175 -222.5t-286 -79.5t-284 76t-168 201t-48 338v774h131v-774q0 -203 40 -293t130 -147.5t197 -57.5q119 0 214 68.5t124.5 162t29.5 267.5v774h132v-780q0 -115 -8.5 -184.5t-28.5 -122.5zM782 1516h-112l-248 262h184z" />
<glyph unicode="&#xda;" horiz-adv-x="1341" d="M1137 279q-53 -143 -175 -222.5t-286 -79.5t-284 76t-168 201t-48 338v774h131v-774q0 -203 40 -293t130 -147.5t197 -57.5q119 0 214 68.5t124.5 162t29.5 267.5v774h132v-780q0 -115 -8.5 -184.5t-28.5 -122.5zM559 1516l176 262h184l-250 -262h-110z" />
<glyph unicode="&#xdb;" horiz-adv-x="1341" d="M1137 279q-53 -143 -175 -222.5t-286 -79.5t-284 76t-168 201t-48 338v774h131v-774q0 -203 40 -293t130 -147.5t197 -57.5q119 0 214 68.5t124.5 162t29.5 267.5v774h132v-780q0 -115 -8.5 -184.5t-28.5 -122.5zM750 1778l219 -262h-145l-156 188l-160 -188h-135 l223 262h154z" />
<glyph unicode="&#xdc;" horiz-adv-x="1341" d="M1137 279q-53 -143 -175 -222.5t-286 -79.5t-284 76t-168 201t-48 338v774h131v-774q0 -203 40 -293t130 -147.5t197 -57.5q119 0 214 68.5t124.5 162t29.5 267.5v774h132v-780q0 -115 -8.5 -184.5t-28.5 -122.5zM815 1557v178h144v-178h-144zM465 1557v178h144v-178 h-144z" />
<glyph unicode="&#xdd;" horiz-adv-x="1204" d="M670 0h-131v575l-519 791h158l428 -668l426 668h150l-512 -786v-580zM490 1516l176 262h184l-250 -262h-110z" />
<glyph unicode="&#xde;" d="M539 1178q133 0 207.5 -14.5t144.5 -59.5t115 -132t45 -188q0 -127 -78 -227t-160 -122.5t-138.5 -29t-135.5 -6.5h-232v-399h-131v1366h131v-188h232zM545 514h61q12 0 27 2q117 0 197.5 77t80.5 195q0 84 -47 154t-120.5 95.5t-206.5 25.5h-230v-549h238z" />
<glyph unicode="&#xdf;" horiz-adv-x="1087" d="M791 1120q0 115 -67 187.5t-173 72.5q-160 0 -218.5 -125t-58.5 -307v-123v-825h-124v825v121q0 168 16 245t96 187.5t287 110.5q168 0 270.5 -98.5t102.5 -264.5q0 -268 -267 -335q162 0 253 -103.5t91 -277.5q0 -195 -116.5 -309.5t-313.5 -114.5q-78 0 -163 26l6 117 q45 -18 81.5 -26.5t73.5 -8.5q135 0 218 89t83 233q0 195 -105.5 244t-160.5 54t-137 5v112q141 0 233.5 75t92.5 214z" />
<glyph unicode="&#xe0;" horiz-adv-x="1007" d="M813 834q18 -41 26.5 -98.5t8.5 -162.5l12 -573h-117l-2 74l4 108q-109 -197 -339 -196q-143 0 -230.5 78.5t-87.5 209.5q0 160 140.5 245t404.5 85q31 0 92 -6q0 147 -54.5 223t-195.5 76q-70 0 -129 -18.5t-145 -69.5l2 131q143 66 305 66q229 0 305 -172zM217 268 q0 -80 57.5 -131t149.5 -51q160 0 231.5 104.5t71.5 270.5v37l-78 4q-172 0 -302 -47.5t-130 -186.5zM602 1176h-112l-248 262h184z" />
<glyph unicode="&#xe1;" horiz-adv-x="1007" d="M813 834q18 -41 26.5 -98.5t8.5 -162.5l12 -573h-117l-2 74l4 108q-109 -197 -339 -196q-143 0 -230.5 78.5t-87.5 209.5q0 160 140.5 245t404.5 85q31 0 92 -6q0 147 -54.5 223t-195.5 76q-70 0 -129 -18.5t-145 -69.5l2 131q143 66 305 66q229 0 305 -172zM217 268 q0 -80 57.5 -131t149.5 -51q160 0 231.5 104.5t71.5 270.5v37l-78 4q-172 0 -302 -47.5t-130 -186.5zM406 1176l176 262h184l-250 -262h-110z" />
<glyph unicode="&#xe2;" horiz-adv-x="1007" d="M813 834q18 -41 26.5 -98.5t8.5 -162.5l12 -573h-117l-2 74l4 108q-109 -197 -339 -196q-143 0 -230.5 78.5t-87.5 209.5q0 160 140.5 245t404.5 85q31 0 92 -6q0 147 -54.5 223t-195.5 76q-70 0 -129 -18.5t-145 -69.5l2 131q143 66 305 66q229 0 305 -172zM217 268 q0 -80 57.5 -131t149.5 -51q160 0 231.5 104.5t71.5 270.5v37l-78 4q-172 0 -302 -47.5t-130 -186.5zM584 1438l219 -262h-145l-156 188l-160 -188h-135l223 262h154z" />
<glyph unicode="&#xe3;" horiz-adv-x="1007" d="M813 834q18 -41 26.5 -98.5t8.5 -162.5l12 -573h-117l-2 74l4 108q-109 -197 -339 -196q-143 0 -230.5 78.5t-87.5 209.5q0 160 140.5 245t404.5 85q31 0 92 -6q0 147 -54.5 223t-195.5 76q-70 0 -129 -18.5t-145 -69.5l2 131q143 66 305 66q229 0 305 -172zM217 268 q0 -80 57.5 -131t149.5 -51q160 0 231.5 104.5t71.5 270.5v37l-78 4q-172 0 -302 -47.5t-130 -186.5zM371 1290q-55 0 -76 -69h-76q0 78 44 124t118 46q41 0 129 -35t127 -35q57 0 76 63h76q-25 -162 -154 -161q-45 0 -137 33.5t-127 33.5z" />
<glyph unicode="&#xe4;" horiz-adv-x="1007" d="M813 834q18 -41 26.5 -98.5t8.5 -162.5l12 -573h-117l-2 74l4 108q-109 -197 -339 -196q-143 0 -230.5 78.5t-87.5 209.5q0 160 140.5 245t404.5 85q31 0 92 -6q0 147 -54.5 223t-195.5 76q-70 0 -129 -18.5t-145 -69.5l2 131q143 66 305 66q229 0 305 -172zM217 268 q0 -80 57.5 -131t149.5 -51q160 0 231.5 104.5t71.5 270.5v37l-78 4q-172 0 -302 -47.5t-130 -186.5zM608 1217v178h144v-178h-144zM258 1217v178h144v-178h-144z" />
<glyph unicode="&#xe5;" horiz-adv-x="1007" d="M813 834q18 -41 26.5 -98.5t8.5 -162.5l12 -573h-117l-2 74l4 108q-109 -197 -339 -196q-143 0 -230.5 78.5t-87.5 209.5q0 160 140.5 245t404.5 85q31 0 92 -6q0 147 -54.5 223t-195.5 76q-70 0 -129 -18.5t-145 -69.5l2 131q143 66 305 66q229 0 305 -172zM217 268 q0 -80 57.5 -131t149.5 -51q160 0 231.5 104.5t71.5 270.5v37l-78 4q-172 0 -302 -47.5t-130 -186.5zM504 1126q-74 0 -127 53.5t-53 127.5q0 76 51 129t129 53q76 0 129 -53.5t53 -128.5q0 -74 -53 -127.5t-129 -53.5zM504 1208q43 0 71.5 29t28.5 72q0 41 -28.5 69.5 t-71.5 28.5q-41 0 -70.5 -27.5t-29.5 -70.5t28.5 -72t71.5 -29z" />
<glyph unicode="&#xe6;" horiz-adv-x="1566" d="M1403 150l4 -123q-145 -41 -262 -41q-160 0 -263.5 68.5t-119.5 185.5q-35 -254 -336 -254q-154 0 -246 77.5t-92 206.5q0 201 177 258.5t433 57.5q0 150 -65.5 229.5t-186.5 79.5q-125 0 -251 -86l-2 127q141 68 262 68q135 0 218 -58.5t95 -161.5q25 100 115 160 t217 60q211 0 295 -146.5t84 -376.5h-664q0 -184 91 -285.5t255 -101.5q55 0 107.5 12.5t134.5 43.5zM821 584h531q0 152 -66.5 236.5t-183.5 84.5q-123 0 -193 -94t-88 -227zM217 274q0 -78 60.5 -129t152.5 -51q152 0 209 112.5t57 278.5h-57q-172 0 -297 -39t-125 -172z " />
<glyph unicode="&#xe7;" horiz-adv-x="878" d="M592 887q-164 0 -267.5 -105.5t-103.5 -277.5q0 -170 102.5 -285t258.5 -115q135 0 235 54l14 -123q-96 -43 -264 -43l-78 -109l37 4q74 0 119 -38.5t45 -100.5q0 -68 -62.5 -116t-150.5 -48q-78 0 -190 47l35 68q45 -18 77.5 -27.5t59.5 -9.5q106 0 106 78t-96 78 q-33 0 -61 -8l-27 32l108 158q-188 37 -294.5 172t-106.5 330q0 221 138.5 359t359.5 138q115 0 231 -38l-6 -123q-119 49 -219 49z" />
<glyph unicode="&#xe8;" horiz-adv-x="1005" d="M836 164l4 -127q-133 -59 -279 -60q-225 0 -350 139.5t-125 393.5q0 233 118 371.5t316 138.5q221 0 309.5 -155.5t88.5 -393.5h-707q0 -176 96 -280.5t252 -104.5q152 0 277 78zM215 573h576q0 141 -69 238.5t-208 97.5q-129 0 -206 -99.5t-93 -236.5zM600 1176h-112 l-248 262h184z" />
<glyph unicode="&#xe9;" horiz-adv-x="1005" d="M836 164l4 -127q-133 -59 -279 -60q-225 0 -350 139.5t-125 393.5q0 233 118 371.5t316 138.5q221 0 309.5 -155.5t88.5 -393.5h-707q0 -176 96 -280.5t252 -104.5q152 0 277 78zM215 573h576q0 141 -69 238.5t-208 97.5q-129 0 -206 -99.5t-93 -236.5zM404 1176l176 262 h184l-250 -262h-110z" />
<glyph unicode="&#xea;" horiz-adv-x="1005" d="M836 164l4 -127q-133 -59 -279 -60q-225 0 -350 139.5t-125 393.5q0 233 118 371.5t316 138.5q221 0 309.5 -155.5t88.5 -393.5h-707q0 -176 96 -280.5t252 -104.5q152 0 277 78zM215 573h576q0 141 -69 238.5t-208 97.5q-129 0 -206 -99.5t-93 -236.5zM582 1438 l219 -262h-145l-156 188l-160 -188h-135l223 262h154z" />
<glyph unicode="&#xeb;" horiz-adv-x="1005" d="M836 164l4 -127q-133 -59 -279 -60q-225 0 -350 139.5t-125 393.5q0 233 118 371.5t316 138.5q221 0 309.5 -155.5t88.5 -393.5h-707q0 -176 96 -280.5t252 -104.5q152 0 277 78zM215 573h576q0 141 -69 238.5t-208 97.5q-129 0 -206 -99.5t-93 -236.5zM606 1219v178h144 v-178h-144zM256 1219v178h144v-178h-144z" />
<glyph unicode="&#xec;" horiz-adv-x="423" d="M150 0v993h124v-993h-124zM309 1176h-112l-248 262h184z" />
<glyph unicode="&#xed;" horiz-adv-x="423" d="M150 0v993h124v-993h-124zM113 1176l176 262h184l-250 -262h-110z" />
<glyph unicode="&#xee;" horiz-adv-x="423" d="M150 0v993h124v-993h-124zM271 1438l219 -262h-145l-156 188l-160 -188h-135l223 262h154z" />
<glyph unicode="&#xef;" horiz-adv-x="423" d="M150 0v993h124v-993h-124zM315 1219v178h144v-178h-144zM-35 1219v178h144v-178h-144z" />
<glyph unicode="&#xf0;" horiz-adv-x="1101" d="M551 -23q-207 0 -336 141.5t-129 373.5q0 225 125 369.5t321 144.5q106 0 195.5 -45.5t138.5 -126.5q-43 168 -101 263t-163 173l-209 -146l-53 74l178 125q-90 43 -227 63l26 103q61 -6 127 -23.5t179 -68.5l219 151l51 -73l-195 -138q164 -139 240 -340.5t76 -437.5 q0 -274 -121 -428t-342 -154zM549 78q150 0 244 116.5t94 301.5q0 190 -88 299.5t-242 109.5t-248 -114.5t-94 -301.5q0 -176 95.5 -293.5t238.5 -117.5z" />
<glyph unicode="&#xf1;" horiz-adv-x="1093" d="M604 1006q113 0 195 -53.5t107.5 -123t32.5 -142.5t7 -185v-502h-125v498q0 123 -6 178t-28.5 105t-77 83t-123.5 33q-78 0 -145.5 -41t-101.5 -101.5t-44 -112.5t-10 -150v-492h-125v618l-10 375h118v-198q45 96 134 153.5t202 57.5zM414 1292q-55 0 -76 -69h-76 q0 78 44 124t118 46q41 0 129 -35t127 -35q57 0 76 63h76q-25 -162 -154 -161q-45 0 -137 33.5t-127 33.5z" />
<glyph unicode="&#xf2;" horiz-adv-x="1103" d="M555 -25q-211 0 -339 142.5t-128 378.5q0 240 127 381t342 141q209 0 334 -141.5t125 -380.5q0 -233 -127 -377t-334 -144zM553 76q145 0 239.5 118.5t94.5 301.5q0 184 -93.5 304t-238.5 120q-150 0 -244 -119t-94 -307q0 -180 94.5 -299t241.5 -119zM651 1176h-112 l-248 262h184z" />
<glyph unicode="&#xf3;" horiz-adv-x="1103" d="M555 -25q-211 0 -339 142.5t-128 378.5q0 240 127 381t342 141q209 0 334 -141.5t125 -380.5q0 -233 -127 -377t-334 -144zM553 76q145 0 239.5 118.5t94.5 301.5q0 184 -93.5 304t-238.5 120q-150 0 -244 -119t-94 -307q0 -180 94.5 -299t241.5 -119zM455 1176l176 262 h184l-250 -262h-110z" />
<glyph unicode="&#xf4;" horiz-adv-x="1103" d="M555 -25q-211 0 -339 142.5t-128 378.5q0 240 127 381t342 141q209 0 334 -141.5t125 -380.5q0 -233 -127 -377t-334 -144zM553 76q145 0 239.5 118.5t94.5 301.5q0 184 -93.5 304t-238.5 120q-150 0 -244 -119t-94 -307q0 -180 94.5 -299t241.5 -119zM631 1438l219 -262 h-145l-156 188l-160 -188h-135l223 262h154z" />
<glyph unicode="&#xf5;" horiz-adv-x="1103" d="M555 -25q-211 0 -339 142.5t-128 378.5q0 240 127 381t342 141q209 0 334 -141.5t125 -380.5q0 -233 -127 -377t-334 -144zM553 76q145 0 239.5 118.5t94.5 301.5q0 184 -93.5 304t-238.5 120q-150 0 -244 -119t-94 -307q0 -180 94.5 -299t241.5 -119zM420 1292 q-55 0 -76 -69h-76q0 78 44 124t118 46q41 0 129 -35t127 -35q57 0 76 63h76q-25 -162 -154 -161q-45 0 -137 33.5t-127 33.5z" />
<glyph unicode="&#xf6;" horiz-adv-x="1103" d="M555 -25q-211 0 -339 142.5t-128 378.5q0 240 127 381t342 141q209 0 334 -141.5t125 -380.5q0 -233 -127 -377t-334 -144zM553 76q145 0 239.5 118.5t94.5 301.5q0 184 -93.5 304t-238.5 120q-150 0 -244 -119t-94 -307q0 -180 94.5 -299t241.5 -119zM665 1219v178h144 v-178h-144zM315 1219v178h144v-178h-144z" />
<glyph unicode="&#xf7;" d="M1006 752v-111h-916v111h916zM459 328v178h178v-178h-178zM459 889v178h178v-178h-178z" />
<glyph unicode="&#xf8;" horiz-adv-x="1103" d="M1006 977l-99 -119q109 -164 109 -362q0 -231 -127 -375t-334 -144q-180 0 -299 103l-94 -111l-76 64l100 123q-98 135 -98 340q0 238 127 379t340 141q164 0 279 -86l94 112zM217 494q0 -139 57 -242l482 588q-88 78 -203 78q-150 0 -243 -118t-93 -306zM553 78 q145 0 239.5 116.5t94.5 301.5q0 158 -68 266l-485 -592q92 -92 219 -92z" />
<glyph unicode="&#xf9;" horiz-adv-x="1087" d="M938 0h-117v120v83q-92 -217 -334 -217q-213 0 -267 118.5t-62 182t-8 153.5v62v491h124v-491q0 -186 40 -297t194 -111q158 0 216 106.5t67.5 167t9.5 142.5v483h125v-631q0 -106 2 -189t10 -173zM643 1176h-112l-248 262h184z" />
<glyph unicode="&#xfa;" horiz-adv-x="1087" d="M938 0h-117v120v83q-92 -217 -334 -217q-213 0 -267 118.5t-62 182t-8 153.5v62v491h124v-491q0 -186 40 -297t194 -111q158 0 216 106.5t67.5 167t9.5 142.5v483h125v-631q0 -106 2 -189t10 -173zM447 1176l176 262h184l-250 -262h-110z" />
<glyph unicode="&#xfb;" horiz-adv-x="1087" d="M938 0h-117v120v83q-92 -217 -334 -217q-213 0 -267 118.5t-62 182t-8 153.5v62v491h124v-491q0 -186 40 -297t194 -111q158 0 216 106.5t67.5 167t9.5 142.5v483h125v-631q0 -106 2 -189t10 -173zM623 1438l219 -262h-145l-156 188l-160 -188h-135l223 262h154z" />
<glyph unicode="&#xfc;" horiz-adv-x="1087" d="M938 0h-117v120v83q-92 -217 -334 -217q-213 0 -267 118.5t-62 182t-8 153.5v62v491h124v-491q0 -186 40 -297t194 -111q158 0 216 106.5t67.5 167t9.5 142.5v483h125v-631q0 -106 2 -189t10 -173zM657 1217v178h144v-178h-144zM307 1217v178h144v-178h-144z" />
<glyph unicode="&#xfd;" horiz-adv-x="886" d="M184 -422q-31 0 -104 14l12 111q47 -16 78 -16q92 0 128 63.5t89 214.5l-358 1028h133l289 -846l282 846h127l-381 -1114q-63 -188 -129 -244.5t-166 -56.5zM346 1176l176 262h184l-250 -262h-110z" />
<glyph unicode="&#xfe;" horiz-adv-x="1099" d="M276 1010l-4 -207q47 96 135.5 151.5t194.5 55.5q186 0 297 -135.5t111 -368.5q0 -236 -111 -379t-293 -143q-227 0 -330 192v-594h-124v1893h124v-320v-145zM582 88q137 0 216 107.5t79 296.5q0 193 -76 301t-209 108q-137 0 -226.5 -113.5t-89.5 -287.5 q0 -182 84.5 -297t221.5 -115z" />
<glyph unicode="&#xff;" horiz-adv-x="886" d="M184 -422q-31 0 -104 14l12 111q47 -16 78 -16q92 0 128 63.5t89 214.5l-358 1028h133l289 -846l282 846h127l-381 -1114q-63 -188 -129 -244.5t-166 -56.5zM538 1219v178h144v-178h-144zM188 1219v178h144v-178h-144z" />
<glyph unicode="&#x152;" horiz-adv-x="1767" d="M1081 1249v-487h510v-115h-510v-530h561v-117h-462l-320 -6q-338 0 -543.5 179t-205.5 515t203.5 510t545.5 174l385 -8h371v-115h-535zM248 688q0 -262 157.5 -419.5t419.5 -157.5q55 0 125 14v1108q-74 23 -133 22q-256 0 -412.5 -154.5t-156.5 -412.5z" />
<glyph unicode="&#x153;" horiz-adv-x="1662" d="M1257 96q117 0 238 60l4 -127q-84 -31 -133 -41.5t-117 -10.5q-135 0 -243.5 64.5t-131.5 189.5q-23 -115 -119 -184.5t-235 -69.5q-203 0 -318.5 136.5t-115.5 371.5q0 248 116.5 389.5t319.5 141.5q129 0 228.5 -66.5t126.5 -173.5q31 113 120.5 176.5t219.5 63.5 q205 0 281.5 -159t76.5 -390h-635l-2 -29q0 -145 88 -243.5t231 -98.5zM942 569h506q0 133 -56.5 234.5t-181.5 101.5q-115 0 -191.5 -95.5t-76.5 -240.5zM520 86q137 0 219 113.5t82 306.5q0 184 -83 291.5t-222 107.5q-137 0 -219 -111.5t-82 -299.5q0 -186 82 -297 t223 -111z" />
<glyph unicode="&#x178;" horiz-adv-x="1204" d="M670 0h-131v575l-519 791h158l428 -668l426 668h150l-512 -786v-580zM704 1559v178h144v-178h-144zM354 1559v178h144v-178h-144z" />
<glyph unicode="&#x2c6;" horiz-adv-x="1024" d="M590 1438l219 -262h-145l-156 188l-160 -188h-135l223 262h154z" />
<glyph unicode="&#x2000;" horiz-adv-x="913" />
<glyph unicode="&#x2001;" horiz-adv-x="1828" />
<glyph unicode="&#x2002;" horiz-adv-x="913" />
<glyph unicode="&#x2003;" horiz-adv-x="1828" />
<glyph unicode="&#x2004;" horiz-adv-x="608" />
<glyph unicode="&#x2005;" horiz-adv-x="456" />
<glyph unicode="&#x2006;" horiz-adv-x="303" />
<glyph unicode="&#x2007;" horiz-adv-x="303" />
<glyph unicode="&#x2008;" horiz-adv-x="227" />
<glyph unicode="&#x2009;" horiz-adv-x="364" />
<glyph unicode="&#x200a;" horiz-adv-x="100" />
<glyph unicode="&#x2010;" horiz-adv-x="450" d="M20 453v104h410v-104h-410z" />
<glyph unicode="&#x2011;" horiz-adv-x="450" d="M20 453v104h410v-104h-410z" />
<glyph unicode="&#x2012;" horiz-adv-x="450" d="M20 453v104h410v-104h-410z" />
<glyph unicode="&#x2013;" d="M98 453v104h901v-104h-901z" />
<glyph unicode="&#x2014;" horiz-adv-x="1353" d="M-29 453v104h1403v-104h-1403z" />
<glyph unicode="&#x2018;" horiz-adv-x="546" d="M150 1044l147 431h125l-113 -431h-159z" />
<glyph unicode="&#x2019;" horiz-adv-x="546" d="M123 1044l115 431h159l-149 -431h-125z" />
<glyph unicode="&#x201a;" horiz-adv-x="546" d="M123 -262l115 430h159l-149 -430h-125z" />
<glyph unicode="&#x201c;" horiz-adv-x="888" d="M494 1044l147 431h125l-113 -431h-159zM150 1044l147 431h125l-113 -431h-159z" />
<glyph unicode="&#x201d;" horiz-adv-x="888" d="M395 1475l-147 -431h-125l113 431h159zM739 1475l-147 -431h-125l113 431h159z" />
<glyph unicode="&#x201e;" horiz-adv-x="888" d="M422 168l-148 -432h-124l112 432h160zM766 168l-148 -432h-124l112 432h160z" />
<glyph unicode="&#x2022;" horiz-adv-x="1228" d="M854 588q0 -102 -73.5 -174t-178.5 -72q-102 0 -174 71.5t-72 174.5q0 98 72 172t174 74q104 0 178 -72t74 -174z" />
<glyph unicode="&#x2026;" horiz-adv-x="1646" d="M193 0v168h161v-168h-161zM741 0v168h162v-168h-162zM1290 0v168h162v-168h-162z" />
<glyph unicode="&#x202f;" horiz-adv-x="364" />
<glyph unicode="&#x2039;" horiz-adv-x="755" d="M580 102h-117l-273 404l275 401h115l-261 -401z" />
<glyph unicode="&#x203a;" horiz-adv-x="755" d="M565 506l-272 -404h-117l260 404l-260 401h117z" />
<glyph unicode="&#x205f;" horiz-adv-x="456" />
<glyph unicode="&#x2122;" horiz-adv-x="1660" d="M352 1282v-694h-98v694h-246v84h588v-84h-244zM1466 588v485l2 182l-75 -176l-226 -491h-82l-221 491l-73 166l8 -184v-473h-99v784h136l215 -481l77 -193q29 84 45.5 125t40.5 80l213 469h138v-784h-99z" />
<glyph unicode="&#xe000;" horiz-adv-x="995" d="M0 995h995v-995h-995v995z" />
<glyph unicode="&#xfb01;" horiz-adv-x="1087" d="M803 1278v168h146v-168h-146zM814 0v993h124v-993h-124zM526 1374q-98 0 -126.5 -75.5t-28.5 -192.5v-113h231v-102h-231v-891h-125v891h-209v102h209v107q0 180 54 282.5t220 102.5q47 0 109 -19l-11 -110q-53 18 -92 18z" />
<glyph unicode="&#xfb02;" horiz-adv-x="1087" d="M814 0v1475h124v-1475h-124zM526 1374q-98 0 -126.5 -75.5t-28.5 -192.5v-113h231v-102h-231v-891h-125v891h-209v102h209v107q0 180 54 282.5t220 102.5q47 0 109 -19l-11 -110q-53 18 -92 18z" />
<glyph unicode="&#xfb03;" horiz-adv-x="1751" d="M1466 1278v168h146v-168h-146zM1477 0v993h124v-993h-124zM1190 1374q-98 0 -126.5 -75.5t-28.5 -192.5v-113h231v-102h-231v-891h-125v891h-209v102h209v107q0 180 54 282.5t220 102.5q47 0 109 -19l-11 -110q-53 18 -92 18zM526 1374q-98 0 -126.5 -75.5t-28.5 -192.5 v-113h231v-102h-231v-891h-125v891h-209v102h209v107q0 180 54 282.5t220 102.5q47 0 109 -19l-11 -110q-53 18 -92 18z" />
<glyph unicode="&#xfb04;" horiz-adv-x="1751" d="M1477 0v1475h124v-1475h-124zM1190 1374q-98 0 -126.5 -75.5t-28.5 -192.5v-113h231v-102h-231v-891h-125v891h-209v102h209v107q0 180 54 282.5t220 102.5q47 0 109 -19l-11 -110q-53 18 -92 18zM526 1374q-98 0 -126.5 -75.5t-28.5 -192.5v-113h231v-102h-231v-891 h-125v891h-209v102h209v107q0 180 54 282.5t220 102.5q47 0 109 -19l-11 -110q-53 18 -92 18z" />
<glyph horiz-adv-x="423" d="M150 0v993h124v-993h-124z" />
<glyph horiz-adv-x="1024" d="M379 1292q-55 0 -76 -69h-76q0 78 44 124t118 46q41 0 129 -35t127 -35q57 0 76 63h76q-25 -162 -154 -161q-45 0 -137 33.5t-127 33.5z" />
<glyph horiz-adv-x="1024" d="M510 1126q-74 0 -127 53.5t-53 127.5q0 76 51 129t129 53q76 0 129 -53.5t53 -128.5q0 -74 -53 -127.5t-129 -53.5zM510 1208q43 0 71.5 29t28.5 72q0 41 -28.5 69.5t-71.5 28.5q-41 0 -70.5 -27.5t-29.5 -70.5t28.5 -72t71.5 -29z" />
</font>
</defs>
</svg>
